<svg viewBox="0 0 216.92 244" xmlns="http://www.w3.org/2000/svg" xmlns:xlink="http://www.w3.org/1999/xlink" id="Layer_1" overflow="hidden"><g id="Layer_1_1_" display="none"></g><g id="Network_x5F_bk_copy"><g><g><path d="M26.81 129.39 16.92 129.39C16.01 129.39 15.27 130.12 15.27 131.04L15.27 150.8C15.27 151.71 16 152.45 16.92 152.45L26.81 152.45C27.72 152.45 28.46 151.72 28.46 150.8L28.46 131.04C28.46 130.12 27.72 129.39 26.81 129.39ZM25.17 149.15 18.59 149.15 18.59 132.68 25.17 132.68 25.17 149.15 25.17 149.15Z" fill="#FDB515"/></g></g><g><g><path d="M46.57 112.92 36.68 112.92C35.77 112.92 35.03 113.65 35.03 114.57L35.03 150.8C35.03 151.71 35.76 152.45 36.68 152.45L46.57 152.45C47.48 152.45 48.22 151.72 48.22 150.8L48.22 114.57C48.22 113.65 47.48 112.92 46.57 112.92ZM44.93 149.15 38.35 149.15 38.35 116.21 44.93 116.21 44.93 149.15 44.93 149.15Z" fill="#FDB515"/></g></g><g><g><path d="M66.33 119.5 56.44 119.5C55.53 119.5 54.79 120.23 54.79 121.15L54.79 150.8C54.79 151.71 55.52 152.45 56.44 152.45L66.33 152.45C67.24 152.45 67.98 151.72 67.98 150.8L67.98 121.15C67.98 120.25 67.24 119.5 66.33 119.5ZM64.69 149.15 58.11 149.15 58.11 122.8 64.69 122.8 64.69 149.15Z" fill="#FDB515"/></g></g><g><g><path d="M86.09 99.74 76.2 99.74C75.29 99.74 74.55 100.47 74.55 101.39L74.55 150.8C74.55 151.71 75.28 152.45 76.2 152.45L86.09 152.45C87 152.45 87.74 151.72 87.74 150.8L87.74 101.39C87.74 100.49 87.01 99.74 86.09 99.74ZM84.45 149.15 77.87 149.15 77.87 103.03 84.45 103.03 84.45 149.15Z" fill="#FDB515"/></g></g><g><g><path d="M105.58 129.39 95.69 129.39C94.78 129.39 94.04 130.12 94.04 131.04L94.04 150.8C94.04 151.71 94.77 152.45 95.69 152.45L105.58 152.45C106.49 152.45 107.23 151.72 107.23 150.8L107.23 131.04C107.22 130.12 106.49 129.39 105.58 129.39ZM103.93 149.15 97.35 149.15 97.35 132.68 103.93 132.68 103.93 149.15 103.93 149.15Z" fill="#FDB515"/></g></g><g><g><path d="M125.34 112.92 115.45 112.92C114.54 112.92 113.8 113.65 113.8 114.57L113.8 150.8C113.8 151.71 114.53 152.45 115.45 152.45L125.34 152.45C126.25 152.45 126.99 151.72 126.99 150.8L126.99 114.57C126.98 113.65 126.25 112.92 125.34 112.92ZM123.69 149.15 117.11 149.15 117.11 116.21 123.69 116.21 123.69 149.15 123.69 149.15Z" fill="#FDB515"/></g></g><g><g><path d="M145.1 119.5 135.21 119.5C134.3 119.5 133.56 120.23 133.56 121.15L133.56 150.8C133.56 151.71 134.29 152.45 135.21 152.45L145.1 152.45C146.01 152.45 146.75 151.72 146.75 150.8L146.75 121.15C146.76 120.25 146.01 119.5 145.1 119.5ZM143.45 149.15 136.87 149.15 136.87 122.8 143.45 122.8 143.45 149.15Z" fill="#FDB515"/></g></g><g><g><path d="M164.87 99.74 154.98 99.74C154.07 99.74 153.33 100.47 153.33 101.39L153.33 150.8C153.33 151.71 154.06 152.45 154.98 152.45L164.87 152.45C165.78 152.45 166.52 151.72 166.52 150.8L166.52 101.39C166.52 100.49 165.77 99.74 164.87 99.74ZM163.21 149.15 156.63 149.15 156.63 103.03 163.21 103.03 163.21 149.15Z" fill="#FDB515"/></g></g><g><g><path d="M20.72 106.69C17.1 106.39 13.91 109.07 13.59 112.69 13.29 116.31 15.97 119.5 19.59 119.82 23.21 120.12 26.4 117.44 26.72 113.82 27.03 110.18 24.34 106.99 20.72 106.69ZM19.89 116.54C18.08 116.39 16.74 114.79 16.89 112.98 17.04 111.17 18.64 109.83 20.45 109.98 22.26 110.13 23.6 111.73 23.45 113.54 23.29 115.35 21.7 116.69 19.89 116.54Z" fill="#FDB515"/></g></g><g><g><path d="M41.8 91.95C38.18 91.65 34.99 94.33 34.67 97.95 34.35 101.57 37.05 104.76 40.67 105.08 44.29 105.38 47.48 102.7 47.8 99.08 48.12 95.46 45.42 92.26 41.8 91.95ZM40.96 101.79C39.15 101.64 37.81 100.04 37.96 98.23 38.11 96.42 39.71 95.08 41.52 95.23 43.33 95.38 44.67 96.98 44.52 98.79 44.37 100.6 42.77 101.95 40.96 101.79Z" fill="#FDB515"/></g></g><g><g><path d="M60.94 100.18C57.32 99.88 54.13 102.56 53.81 106.18 53.51 109.8 56.19 112.99 59.81 113.31 63.43 113.61 66.62 110.93 66.94 107.31 67.26 103.69 64.56 100.5 60.94 100.18ZM60.11 110.03C58.3 109.88 56.96 108.28 57.11 106.47 57.26 104.66 58.86 103.32 60.67 103.47 62.48 103.62 63.82 105.22 63.67 107.03 63.51 108.84 61.92 110.18 60.11 110.03Z" fill="#FDB515"/></g></g><g><g><path d="M82.3 82.17C78.68 81.87 75.49 84.55 75.17 88.17 74.87 91.79 77.55 94.98 81.17 95.3 84.79 95.6 87.98 92.92 88.3 89.3 88.61 85.68 85.92 82.47 82.3 82.17ZM81.46 92.02C79.65 91.87 78.31 90.27 78.46 88.46 78.61 86.65 80.21 85.31 82.02 85.46 83.83 85.61 85.17 87.21 85.02 89.02 84.87 90.83 83.27 92.17 81.46 92.02Z" fill="#FDB515"/></g></g><g><g><path d="M79.23 90.85C78.65 90.15 77.61 90.07 76.91 90.65L63.11 102.3C62.41 102.88 62.33 103.92 62.91 104.62 63.2 104.96 63.61 105.16 64.04 105.2 64.46 105.24 64.89 105.11 65.24 104.82L79.05 93.17C79.73 92.59 79.82 91.55 79.23 90.85Z" fill="#FDB515"/></g></g><g><g><path d="M56.74 102.63 46.45 98.73C45.59 98.4 44.65 98.83 44.32 99.69 43.99 100.54 44.42 101.49 45.27 101.82L55.56 105.72C55.71 105.77 55.85 105.81 56 105.82 56.72 105.88 57.42 105.47 57.68 104.76 58.02 103.9 57.59 102.95 56.74 102.63Z" fill="#FDB515"/></g></g><g><g><path d="M38.51 100.35C38 99.59 36.99 99.39 36.23 99.89L23.01 108.7C22.25 109.21 22.05 110.23 22.55 110.99 22.84 111.42 23.3 111.67 23.78 111.71 24.13 111.74 24.51 111.65 24.83 111.44L38.05 102.63C38.81 102.12 39.02 101.09 38.51 100.35Z" fill="#FDB515"/></g></g><g><g><path d="M100.04 104.99C96.42 104.69 93.23 107.37 92.91 110.99 92.61 114.61 95.29 117.8 98.91 118.12 102.53 118.42 105.72 115.74 106.04 112.12 106.36 108.5 103.67 105.31 100.04 104.99ZM99.21 114.84C97.4 114.69 96.06 113.09 96.21 111.28 96.36 109.47 97.96 108.13 99.77 108.28 101.58 108.43 102.92 110.03 102.77 111.84 102.61 113.65 101.02 114.99 99.21 114.84Z" fill="#FDB515"/></g></g><g><g><path d="M121.13 90.26C117.51 89.96 114.32 92.64 114 96.26 113.68 99.88 116.38 103.07 120 103.39 123.62 103.71 126.81 101.01 127.13 97.39 127.45 93.76 124.76 90.57 121.13 90.26ZM120.3 100.11C118.49 99.96 117.15 98.36 117.3 96.55 117.45 94.74 119.05 93.4 120.86 93.55 122.67 93.7 124.01 95.3 123.86 97.11 123.71 98.92 122.11 100.26 120.3 100.11Z" fill="#FDB515"/></g></g><g><g><path d="M140.26 98.5C136.64 98.2 133.45 100.88 133.13 104.5 132.83 108.12 135.51 111.31 139.13 111.63 142.75 111.93 145.94 109.25 146.26 105.63 146.58 102.01 143.88 98.8 140.26 98.5ZM139.43 108.35C137.62 108.2 136.28 106.6 136.43 104.79 136.58 102.98 138.18 101.64 139.99 101.79 141.8 101.94 143.14 103.54 142.99 105.35 142.83 107.14 141.24 108.5 139.43 108.35Z" fill="#FDB515"/></g></g><g><g><path d="M158.55 89.17C157.97 88.47 156.93 88.39 156.23 88.97L142.42 100.62C141.72 101.2 141.64 102.24 142.22 102.94 142.51 103.28 142.92 103.48 143.35 103.52 143.77 103.56 144.2 103.43 144.55 103.14L158.36 91.49C159.06 90.9 159.15 89.87 158.55 89.17Z" fill="#FDB515"/></g></g><g><g><path d="M136.06 100.94 125.77 97.04C124.91 96.71 123.97 97.14 123.64 98 123.31 98.85 123.74 99.8 124.59 100.13L134.88 104.03C135.03 104.08 135.17 104.12 135.32 104.13 136.04 104.19 136.74 103.78 137 103.07 137.34 102.21 136.92 101.26 136.06 100.94Z" fill="#FDB515"/></g></g><g><g><path d="M117.84 98.65C117.33 97.89 116.32 97.69 115.56 98.19L102.34 107C101.58 107.51 101.38 108.53 101.88 109.29 102.17 109.72 102.63 109.97 103.11 110.01 103.46 110.04 103.84 109.95 104.16 109.74L117.38 100.93C118.15 100.44 118.35 99.41 117.84 98.65Z" fill="#FDB515"/></g></g><g><g><path d="M85.79 91.5C85.03 92.01 84.83 93.02 85.33 93.78L94.14 107C94.65 107.76 95.67 107.96 96.43 107.46 96.86 107.17 97.11 106.71 97.15 106.23 97.18 105.88 97.09 105.5 96.88 105.18L88.07 91.96C87.58 91.19 86.55 90.99 85.79 91.5Z" fill="#FDB515"/></g></g><g><g><path d="M170.8 10.8C169.31 10.8 168.1 12.01 168.1 13.5 168.1 14.99 169.31 16.2 170.8 16.2 179.74 16.2 187.02 23.47 187.02 32.41 187.02 33.9 188.23 35.11 189.72 35.11 191.21 35.11 192.42 33.9 192.42 32.41 192.42 20.5 182.72 10.8 170.8 10.8Z" fill="#FDB515"/></g></g><g><g><path d="M163.83 0.72C151.62 3.27 141.72 13.08 139.12 25.36 136.92 35.73 139.63 46.15 146.56 53.93 149.95 57.74 151.89 62.76 151.89 67.73L151.89 73.13C151.89 76.73 154.24 79.78 157.49 80.84 158.56 87.15 164.03 92.23 170.8 92.23 177.57 92.23 183.05 87.15 184.11 80.84 187.36 79.78 189.71 76.73 189.71 73.13L189.71 67.73C189.71 62.75 191.66 57.79 195.19 53.76 200.37 47.85 203.22 40.28 203.22 32.43 203.23 11.96 184.5-3.59 163.83 0.72ZM170.8 86.83C167.33 86.83 164.28 84.44 163.16 81.23L178.45 81.23C177.32 84.44 174.27 86.83 170.8 86.83ZM184.31 73.14C184.31 74.63 183.1 75.84 181.61 75.84L159.99 75.84C158.5 75.84 157.29 74.63 157.29 73.14L157.29 70.44 184.31 70.44 184.31 73.14ZM191.13 50.2C187.36 54.5 185.04 59.68 184.45 65.03L157.13 65.03C156.54 59.68 154.23 54.44 150.59 50.35 144.82 43.86 142.56 35.17 144.4 26.49 146.55 16.36 154.8 8.14 164.93 6.02 182.23 2.4 197.81 15.4 197.81 32.43 197.82 38.96 195.45 45.28 191.13 50.2Z" fill="#FDB515"/></g></g><g><g><path d="M132.79 32.42 127.39 32.42C125.9 32.42 124.69 33.63 124.69 35.12 124.69 36.61 125.9 37.82 127.39 37.82L132.79 37.82C134.28 37.82 135.49 36.61 135.49 35.12 135.49 33.63 134.28 32.42 132.79 32.42Z" fill="#FDB515"/></g></g><g><g><path d="M133.91 18.91 130.09 15.09C129.03 14.03 127.32 14.03 126.27 15.09 125.21 16.15 125.21 17.86 126.27 18.91L130.09 22.73C131.15 23.79 132.86 23.79 133.91 22.73 134.96 21.68 134.96 19.97 133.91 18.91Z" fill="#FDB515"/></g></g><g><g><path d="M133.91 47.52C132.85 46.46 131.14 46.46 130.09 47.52L126.27 51.34C125.21 52.4 125.21 54.11 126.27 55.16 127.33 56.22 129.04 56.22 130.09 55.16L133.91 51.34C134.96 50.28 134.96 48.57 133.91 47.52Z" fill="#FDB515"/></g></g><g><g><path d="M214.21 32.42 208.81 32.42C207.32 32.42 206.11 33.63 206.11 35.12 206.11 36.61 207.32 37.82 208.81 37.82L214.21 37.82C215.7 37.82 216.91 36.61 216.91 35.12 216.91 33.63 215.71 32.42 214.21 32.42Z" fill="#FDB515"/></g></g><g><g><path d="M215.33 15.09C214.27 14.03 212.56 14.03 211.51 15.09L207.69 18.91C206.63 19.97 206.63 21.68 207.69 22.73 208.75 23.79 210.46 23.79 211.51 22.73L215.33 18.91C216.39 17.86 216.39 16.15 215.33 15.09Z" fill="#FDB515"/></g></g><g><g><path d="M215.33 51.34 211.51 47.52C210.45 46.46 208.74 46.46 207.69 47.52 206.63 48.58 206.63 50.29 207.69 51.34L211.51 55.16C212.57 56.22 214.28 56.22 215.33 55.16 216.39 54.1 216.39 52.39 215.33 51.34Z" fill="#FDB515"/></g></g><g><path d="M176.62 157.3 176.61 157.3 92.84 157.3 91.64 157.3 7.9 157.3 7.9 82.42C7.9 77.27 11.31 72.81 16.01 71.24L91.65 72.04 91.65 72.05 92.26 72.04 92.87 72.05 92.87 72.04 147.61 71.46 147.61 63.53C131.01 63.35 108.94 63.11 92.86 62.94L92.86 62.93C92.66 62.93 92.45 62.93 92.25 62.94 92.05 62.94 91.84 62.94 91.64 62.93L91.64 62.94C63.14 63.24 15.84 63.76 13.5 63.79 5.66 66.43 0 73.83 0 82.41L0 177C0 187.87 8.84 196.71 19.71 196.71L70.94 196.71 70.94 204.6 56.12 204.6C51.61 204.6 47.56 207.11 45.54 211.13L39.43 223.37 39.43 244 91.66 244 92.86 244 145.09 244 145.09 223.37 138.98 211.13C136.97 207.1 132.92 204.6 128.4 204.6L113.55 204.6 113.55 196.71 164.78 196.71C175.65 196.71 184.49 187.87 184.49 177L184.49 94.77 176.63 94.77 176.63 157.3ZM105.67 173.05 105.67 165.18 121.43 165.18 121.43 169.12C121.43 171.3 119.67 173.06 117.49 173.06L105.67 173.06 105.67 173.07 105.67 173.05ZM86.71 165.17 91.65 165.17 92.85 165.17 97.79 165.17 97.79 173.06 92.85 173.06 91.65 173.06 86.71 173.06 86.71 165.17ZM63.07 165.19 78.83 165.19 78.83 173.08 67 173.08C64.84 173.07 63.06 171.31 63.06 169.13L63.06 165.19ZM52.59 214.65C53.26 213.31 54.62 212.47 56.11 212.47L70.95 212.47 70.95 220.36 49.75 220.36 52.59 214.65ZM137.19 228.24 137.19 236.13 92.84 236.13 91.64 236.13 47.31 236.13 47.31 228.24 91.65 228.24 92.85 228.24 137.19 228.24ZM78.84 220.36 78.84 220.36 78.84 196.71 91.65 196.71 92.85 196.71 105.66 196.71 105.66 220.36 92.84 220.36 91.64 220.36 78.84 220.36 78.84 220.36ZM128.39 212.47C129.9 212.47 131.24 213.31 131.91 214.65L134.76 220.36 113.54 220.36 113.54 212.47 128.39 212.47ZM176.61 177C176.61 183.52 171.31 188.82 164.79 188.82L92.84 188.82 91.64 188.82 19.72 188.82C13.2 188.82 7.9 183.52 7.9 177L7.9 165.18 55.19 165.18 55.19 169.12C55.19 175.64 60.49 180.94 67.01 180.94L91.64 180.94 92.84 180.94 117.47 180.94C123.99 180.94 129.29 175.64 129.29 169.12L129.29 165.18 176.58 165.18 176.58 177Z" fill="#FDB515"/></g></g></svg>