<svg viewBox="0 0 658 658" xmlns="http://www.w3.org/2000/svg" xmlns:xlink="http://www.w3.org/1999/xlink" overflow="hidden"><g id="Capa_1"><g><path d="M244.31 468.1 244.31 468.1 244.31 468.1Z" fill="#FDB515"/><path d="M640.11 610.63 523.26 493.78C515.96 502.77 507.75 511 498.77 518.32L615.59 635.14C618.97 638.52 623.41 640.22 627.85 640.22 632.29 640.22 636.73 638.52 640.11 635.14 646.89 628.36 646.89 617.41 640.11 610.63Z" fill="#FDB515"/><path d="M497.77 416.44 432.16 302.82C425.23 290.62 412.69 283.34 398.62 283.34 384.58 283.34 372.04 290.61 365.08 302.77L299.38 416.54C292.39 428.77 292.45 443.31 299.52 455.43 306.52 467.46 319.03 474.64 332.97 474.64L464.03 474.64C478.04 474.64 490.62 467.35 497.69 455.13L497.69 455.13C504.72 442.99 504.75 428.52 497.77 416.44ZM481.29 445.67C477.64 451.95 471.19 455.68 463.99 455.68L332.92 455.68C325.8 455.68 319.39 452.03 315.82 445.88 312.22 439.64 312.17 432.18 315.78 425.89L381.48 312.17C385.04 305.93 391.41 302.24 398.62 302.24 405.78 302.24 412.2 305.97 415.76 312.21L481.42 425.93C484.93 432.06 484.89 439.43 481.29 445.67Z" fill="#FDB515"/><g><path d="M398.58 414.28C391.55 414.28 385.62 420.22 385.62 427.24 385.62 434.26 391.56 440.2 398.58 440.2 402.01 440.2 405.4 438.72 407.87 436.13 410.19 433.7 411.41 430.63 411.29 427.49 411.41 423.99 410.16 420.69 407.76 418.2 405.38 415.7 402.03 414.28 398.58 414.28Z" fill="#FDB515"/><path d="M410.35 348.11C407.73 342.36 401.59 339.36 395.41 340.81L395.3 340.84C389.29 342.56 385.41 347.98 385.41 354.67L385.42 354.86C385.55 356.51 385.66 358.17 385.78 359.83 385.9 361.5 386.01 363.17 386.13 364.78 386.5 371.31 386.87 377.76 387.23 384.22L388.26 402.37C388.59 407.91 393.02 412.08 398.58 412.08 404.19 412.08 408.62 407.78 408.9 402.09L408.9 401.97C408.9 399.36 408.9 397.1 409.15 394.49 409.38 390.5 409.62 386.5 409.85 382.51 410.09 378.42 410.34 374.33 410.57 370.21 410.69 367.62 410.87 364.97 411.05 362.4 411.23 359.81 411.41 357.14 411.53 354.49L411.53 354.37C411.54 352 411.17 350.03 410.35 348.11Z" fill="#FDB515"/></g></g><g><path d="M251.32 482.11C228.99 471.9 206.91 438.45 192.3 388.97L192.3 388.97C203.39 386.74 214.58 385.03 225.81 383.82 226.33 373.32 227.82 363.08 230.18 353.17 215.06 354.5 200.01 356.69 185.1 359.73 179.73 334.18 176.3 305.55 175.44 274.43L273.53 274.43C285.09 262.55 298.37 252.37 312.98 244.29L175.42 244.29C176.28 213.18 179.72 184.53 185.08 159 211.59 164.41 238.54 167.26 265.52 167.26 292.5 167.26 319.45 164.41 345.96 159 350.37 180.01 353.48 203.12 354.92 227.96 364.59 225.62 374.58 224.12 384.82 223.52 383.22 198.15 379.97 174.08 375.22 151.8 399.58 144.87 423.31 135.58 446.13 123.95 471.69 157.97 487.85 199.31 490.83 244.3L476.6 244.3C493.07 253.42 507.86 265.2 520.39 279.07 520.88 272.59 521.13 266.03 521.13 259.42 521.13 118.45 406.85 4.18 265.89 4.18 124.93 4.18 10.65 118.46 10.65 259.43 10.65 400.4 124.93 514.67 265.89 514.67 269.8 514.67 273.69 514.57 277.55 514.39 267.55 504.77 258.73 493.93 251.32 482.11ZM426.05 100.38C407.24 109.51 387.77 116.85 367.87 122.57 358.47 90.39 345.81 63.23 330.75 42.96 367.25 53.99 399.87 73.96 426.05 100.38ZM265.52 33.28C292.32 33.28 321.03 69.74 338.74 129.74 290.48 139.45 240.56 139.45 192.31 129.74 210.01 69.74 238.72 33.28 265.52 33.28ZM200.29 42.97C185.23 63.23 172.59 90.39 163.17 122.58 143.28 116.87 123.8 109.51 104.99 100.39 131.17 73.96 163.79 53.99 200.29 42.97ZM84.92 123.94C107.74 135.58 131.48 144.87 155.83 151.79 149.8 180.09 146.17 211.23 145.3 244.28L40.22 244.28C43.2 199.3 59.36 157.96 84.92 123.94ZM84.92 394.77C59.36 360.75 43.2 319.41 40.22 274.42L145.3 274.42C146.17 307.47 149.81 338.62 155.83 366.91 131.47 373.84 107.74 383.12 84.92 394.77ZM105.01 418.35C123.8 409.22 143.28 401.86 163.17 396.15L163.17 396.15C172.57 428.33 185.23 455.49 200.29 475.76 163.8 464.74 131.17 444.77 105.01 418.35Z" fill="#FDB515"/></g></g><g id="Layer_2"><path d="M395.92 227.38C305.46 227.38 232.12 300.72 232.12 391.18 232.12 481.64 305.46 554.98 395.92 554.98 486.38 554.98 559.72 481.64 559.72 391.18 559.72 300.72 486.39 227.38 395.92 227.38ZM395.92 521.39C324.01 521.39 265.71 463.09 265.71 391.18 265.71 319.27 324.01 260.97 395.92 260.97 467.83 260.97 526.13 319.27 526.13 391.18 526.13 463.09 467.83 521.39 395.92 521.39Z" fill="#FDB515"/></g></svg>