<svg viewBox="0 0 270.96 270.96" xmlns="http://www.w3.org/2000/svg" xmlns:xlink="http://www.w3.org/1999/xlink" overflow="hidden"><g id="Layer_1_1_" display="none"></g><g id="Network_x5F_bk"><rect x="247.29" y="359.45" width="16" height="16" fill="#FDB515" display="none"/><rect x="191.29" y="359.45" width="16" height="16" fill="#FDB515" display="none"/><rect x="7.29" y="359.45" width="16" height="16" fill="#FDB515" display="none"/><rect x="63.29" y="359.45" width="16" height="16" fill="#FDB515" display="none"/><rect x="127.29" y="359.45" width="16" height="16" fill="#FDB515" display="none"/><path d="M177.98 188.73C180.83 175.17 182.65 159.97 183.11 143.45L87.47 143.45C87.93 159.97 89.75 175.17 92.6 188.73 120.73 182.98 149.85 182.98 177.98 188.73Z" fill="#FDB515" display="none"/><path d="M220.49 51.06C206.59 37.04 189.28 26.44 169.91 20.58 177.9 31.34 184.62 45.76 189.61 62.84 200.17 59.81 210.51 55.91 220.49 51.06Z" fill="#FDB515" display="none"/><path d="M135.29 86.56C120.97 86.56 106.67 85.05 92.59 82.18 89.74 95.73 87.92 110.94 87.46 127.45L183.11 127.45C182.65 110.94 180.83 95.74 177.98 82.18 163.91 85.05 149.61 86.56 135.29 86.56Z" fill="#FDB515" display="none"/><path d="M199.1 127.45 199.1 127.45 254.88 127.46C253.3 103.58 244.72 81.64 231.15 63.58 219.04 69.76 206.44 74.68 193.51 78.36 196.71 93.37 198.64 109.9 199.1 127.45Z" fill="#FDB515" display="none"/><path d="M71.47 143.45 15.69 143.45C17.27 167.33 25.85 189.27 39.42 207.33 51.53 201.15 64.13 196.22 77.06 192.55 73.86 177.53 71.93 160.99 71.47 143.45Z" fill="#FDB515" display="none"/><path d="M189.61 208.05C184.62 225.13 177.9 239.55 169.91 250.3 189.28 244.45 206.6 233.85 220.49 219.83 210.51 214.99 200.17 211.09 189.61 208.05L189.61 208.05Z" fill="#FDB515" display="none"/><path d="M174.15 66.65C164.75 34.8 149.51 15.45 135.29 15.45 121.07 15.45 105.83 34.8 96.43 66.65 122.04 71.8 148.53 71.8 174.15 66.65Z" fill="#FDB515" display="none"/><path d="M96.42 204.25 96.42 204.25C105.82 236.1 121.06 255.45 135.28 255.45 149.5 255.45 164.74 236.1 174.14 204.25 148.53 199.09 122.04 199.09 96.42 204.25Z" fill="#FDB515" display="none"/><path d="M199.1 143.45C198.64 160.99 196.71 177.53 193.51 192.55 206.44 196.23 219.04 201.16 231.15 207.33 244.72 189.27 253.29 167.33 254.88 143.45L199.1 143.45Z" fill="#FDB515" display="none"/><path d="M100.66 20.59C81.28 26.44 63.97 37.04 50.08 51.07 60.06 55.91 70.4 59.81 80.96 62.85 85.96 45.76 92.67 31.34 100.66 20.59Z" fill="#FDB515" display="none"/><path d="M80.96 208.05C70.4 211.08 60.06 214.99 50.09 219.83 63.98 233.85 81.3 244.45 100.67 250.3 92.67 239.55 85.95 225.13 80.96 208.05L80.96 208.05Z" fill="#FDB515" display="none"/><path d="M77.06 78.35C64.13 74.68 51.53 69.74 39.42 63.57 25.85 81.63 17.28 103.57 15.69 127.45L71.47 127.45C71.93 109.9 73.86 93.37 77.06 78.35Z" fill="#FDB515" display="none"/></g><g id="Layer_3"><g><path d="M30.82 266.66C32.63 268.47 35.58 268.47 37.39 266.66L69.07 234.98C71.7 236.06 74.4 236.96 77.15 237.66L78.17 244.83C78.5 247.12 80.46 248.82 82.77 248.82L101.35 248.82C103.66 248.82 105.62 247.12 105.95 244.84L106.97 237.67C112.57 236.25 117.9 234.04 122.88 231.07L128.68 235.42C130.53 236.81 133.12 236.62 134.75 234.99L147.89 221.85C149.52 220.22 149.71 217.63 148.32 215.78L143.97 209.98C146.94 205 149.15 199.67 150.57 194.07L157.74 193.05C160.03 192.72 161.73 190.76 161.73 188.45L161.73 169.87C161.73 167.56 160.03 165.6 157.74 165.27L150.57 164.25C149.15 158.65 146.94 153.32 143.97 148.34L148.32 142.54C149.71 140.69 149.52 138.1 147.89 136.47L134.75 123.33C133.12 121.7 130.53 121.51 128.68 122.9L122.88 127.25C117.9 124.28 112.57 122.07 106.97 120.65L105.95 113.48C105.62 111.19 103.66 109.49 101.35 109.49L82.77 109.49C80.46 109.49 78.5 111.19 78.17 113.48L77.15 120.65C71.55 122.07 66.22 124.28 61.24 127.25L55.44 122.9C53.59 121.51 51 121.7 49.37 123.33L36.23 136.47C34.6 138.1 34.41 140.69 35.8 142.54L40.15 148.34C37.18 153.32 34.97 158.65 33.55 164.25L26.38 165.27C24.09 165.6 22.39 167.56 22.39 169.87L22.39 188.45C22.39 190.76 24.09 192.72 26.38 193.05L33.55 194.07C34.25 196.82 35.15 199.52 36.23 202.15L4.55 233.82C2.74 235.63 2.74 238.57 4.55 240.39L30.82 266.66ZM41.93 189.03C41.55 187.09 39.99 185.6 38.03 185.33L31.68 184.42 31.68 173.9 38.03 172.99C39.99 172.71 41.55 171.22 41.93 169.28 43.24 162.62 45.83 156.36 49.64 150.7 50.74 149.06 50.69 146.9 49.5 145.32L45.64 140.18 53.08 132.74 58.22 136.6C59.8 137.79 61.96 137.84 63.6 136.74 69.26 132.93 75.52 130.34 82.18 129.03 84.12 128.65 85.61 127.08 85.88 125.13L86.79 118.78 97.31 118.78 98.22 125.13C98.5 127.09 99.99 128.65 101.93 129.03 108.59 130.34 114.85 132.93 120.51 136.74 122.15 137.84 124.31 137.79 125.89 136.6L131.03 132.74 138.47 140.18 134.61 145.32C133.42 146.9 133.37 149.06 134.47 150.7 138.28 156.36 140.87 162.62 142.18 169.28 142.56 171.22 144.12 172.71 146.08 172.99L152.43 173.9 152.43 184.42 146.08 185.33C144.12 185.61 142.56 187.1 142.18 189.03 140.87 195.7 138.28 201.95 134.47 207.61 133.37 209.25 133.42 211.41 134.61 212.99L138.47 218.13 131.03 225.57 125.89 221.71C124.31 220.52 122.15 220.47 120.51 221.57 114.84 225.38 108.59 227.97 101.93 229.28 99.99 229.66 98.5 231.22 98.22 233.18L97.31 239.53 86.8 239.53 85.89 233.18C85.61 231.22 84.12 229.66 82.18 229.28 80.19 228.89 78.23 228.38 76.3 227.75L84.03 220.02C97.61 222.69 111.67 218.65 121.61 208.71 132.34 197.98 136.05 182.63 132.31 168.47 131.89 166.86 130.63 165.61 129.03 165.17 127.43 164.74 125.71 165.19 124.54 166.37L103.94 186.97 89.16 182.04 84.23 167.26 104.83 146.66C106.01 145.48 106.46 143.77 106.03 142.17 105.6 140.57 104.34 139.31 102.73 138.89 88.6 135.16 73.25 138.84 62.49 149.59 52.55 159.53 48.51 173.59 51.18 187.17L43.45 194.9C42.83 192.98 42.32 191.02 41.93 189.03L41.93 189.03ZM59.57 191.93C60.74 190.76 61.2 189.06 60.78 187.46 57.77 176.06 60.87 164.36 69.07 156.16 75.17 150.06 83.21 146.78 91.62 146.74L75.64 162.72C74.4 163.96 73.96 165.8 74.52 167.47L81.09 187.18C81.55 188.57 82.64 189.66 84.03 190.12L103.74 196.69C105.41 197.25 107.25 196.81 108.49 195.57L124.47 179.59C124.43 188 121.16 196.04 115.05 202.14 106.85 210.34 95.15 213.44 83.75 210.43 82.15 210.01 80.45 210.47 79.28 211.64L34.11 256.81 27.54 250.24 69.07 208.71C70.88 206.9 70.88 203.96 69.07 202.14 67.26 200.33 64.32 200.33 62.5 202.14L20.97 243.67 14.4 237.1 59.57 191.93Z" fill="#FDB515"/></g><g><path d="M141.8 4.45C72.53 4.45 16.38 60.6 16.38 129.86 16.38 141.82 18.06 153.39 21.18 164.34L33.41 154.36C32.15 148.79 31.3 143.07 30.91 137.22L34.06 137.22 47.97 122.41 30.91 122.41C32.38 100.3 40.31 79.99 52.87 63.28 64.08 69 75.75 73.57 87.71 76.97 85.87 85.62 84.48 94.82 83.59 104.44L98.46 104.44C99.29 95.97 100.51 87.96 102.08 80.51 115.11 83.17 128.35 84.57 141.6 84.57 154.85 84.57 168.1 83.17 181.12 80.51 183.76 93.06 185.44 107.13 185.87 122.42L135.83 122.42 152.05 137.23 185.87 137.23C185.45 152.52 183.76 166.59 181.12 179.14 174.95 177.88 168.74 176.93 162.49 176.27L162.49 191.14C167.54 191.72 172.58 192.5 177.57 193.51 168.87 222.99 154.76 240.9 141.59 240.9 138.78 240.9 135.92 240.08 133.08 238.5L118.48 253.1C126.03 254.52 133.81 255.27 141.76 255.27 211.02 255.27 267.17 199.12 267.17 129.86 267.17 60.6 211.06 4.45 141.8 4.45ZM252.32 122.43 200.69 122.43 200.69 122.42C200.26 106.18 198.48 90.87 195.51 76.98 207.48 73.57 219.14 69.01 230.35 63.29 242.91 80.01 250.85 100.32 252.32 122.43ZM91.32 62.62C81.54 59.81 71.98 56.2 62.74 51.72 75.6 38.73 91.63 28.92 109.56 23.51 102.17 33.46 95.95 46.81 91.32 62.62ZM105.64 66.14C114.34 36.66 128.45 18.75 141.62 18.75 154.79 18.75 168.89 36.66 177.6 66.14 153.88 70.91 129.35 70.91 105.64 66.14ZM173.67 23.5C191.61 28.92 207.63 38.73 220.49 51.71 211.25 56.2 201.68 59.8 191.91 62.61 187.28 46.81 181.06 33.46 173.67 23.5ZM173.67 236.15C181.06 226.2 187.28 212.85 191.9 197.04L191.9 197.04C201.68 199.85 211.24 203.46 220.48 207.94 207.63 220.92 191.6 230.73 173.67 236.15ZM230.35 196.37C219.14 190.65 207.47 186.09 195.51 182.68 198.47 168.78 200.26 153.47 200.69 137.23L252.32 137.23C250.85 159.34 242.91 179.65 230.35 196.37Z" fill="#FDB515"/></g></g></svg>