<?xml version="1.0" encoding="utf-8"?>
<!-- Generator: Adobe Illustrator 25.0.1, SVG Export Plug-In . SVG Version: 6.00 Build 0)  -->
<svg version="1.1" id="Layer_1" xmlns="http://www.w3.org/2000/svg" xmlns:xlink="http://www.w3.org/1999/xlink" x="0px" y="0px"
	 viewBox="0 0 511 511" style="enable-background:new 0 0 511 511;" xml:space="preserve">
<style type="text/css">
	.st0{fill:#FDB515;}
</style>
<g>
	<path class="st0" d="M106.8,189.6c0,82.5,67.2,149.7,149.7,149.7s149.7-67.2,149.7-149.7S339,39.9,256.5,39.9
		S106.8,107.1,106.8,189.6z M256.5,59.9c71.5,0,129.7,58.2,129.7,129.7S328,319.4,256.5,319.4s-129.7-58.2-129.7-129.7
		S185,59.9,256.5,59.9z"/>
	<path class="st0" d="M164.1,171.8l38.7,38.1l-8.9,53.6c-0.6,3.7,0.9,7.5,4,9.7c3.1,2.2,7.1,2.5,10.5,0.8l48.2-25l48.2,25
		c3.3,1.7,7.4,1.5,10.5-0.8c3.1-2.2,4.6-6,4-9.7l-8.9-53.6l38.7-38.1c2.7-2.7,3.7-6.6,2.5-10.2c-1.2-3.6-4.3-6.2-8-6.8l-53.7-8.1
		l-24.3-48.6c-1.7-3.4-5.1-5.5-8.9-5.5c-3.8,0-7.2,2.1-8.9,5.5l-24.3,48.6l-53.7,8.1c-3.7,0.6-6.8,3.2-8,6.8
		C160.4,165.2,161.4,169.2,164.1,171.8z M231.4,165.7c3.2-0.5,6-2.5,7.4-5.4l17.7-35.4l17.7,35.4c1.5,2.9,4.2,4.9,7.4,5.4l39.1,5.9
		l-28.2,27.7c-2.3,2.3-3.4,5.5-2.8,8.7l6.5,39l-35.1-18.2c-1.4-0.7-3-1.1-4.6-1.1s-3.2,0.4-4.6,1.1l-35.1,18.2l6.5-39
		c0.5-3.2-0.5-6.5-2.8-8.7l-28.2-27.7L231.4,165.7z"/>
	<path class="st0" d="M266.5,10c0,5.5-4.5,10-10,10c-5.5,0-10-4.5-10-10s4.5-10,10-10C262,0,266.5,4.5,266.5,10z"/>
	<path class="st0" d="M209.5,5.9c-84,21.4-142.6,97-142.6,183.7c0,53.9,22.7,104.7,62.4,140.6l-60.1,106c-1.9,3.4-1.7,7.6,0.6,10.8
		c2.3,3.2,6.3,4.7,10.1,3.9l68.3-14.2l24,67.6c1.3,3.7,4.6,6.3,8.5,6.6c3.9,0.3,7.6-1.6,9.6-5l66.3-116.5L322.8,506
		c1.8,3.1,5.1,5,8.7,5c0.3,0,0.6,0,0.9,0c3.9-0.3,7.2-2.9,8.5-6.6l24-67.6l68.3,14.2c3.8,0.8,7.8-0.7,10.1-3.9
		c2.3-3.2,2.5-7.4,0.6-10.8l-60.1-106c39.8-36,62.4-86.7,62.4-140.6c0-86.8-58.6-162.3-142.6-183.7c-5.3-1.4-10.8,1.9-12.1,7.2
		s1.9,10.8,7.2,12.1c75.1,19.2,127.6,86.8,127.6,164.4c0,94.5-76.7,169.7-169.7,169.7c-93,0-169.7-75.3-169.7-169.7
		c0-77.6,52.5-145.2,127.6-164.4c5.3-1.4,8.6-6.8,7.2-12.1C220.2,7.7,214.8,4.5,209.5,5.9z M183.7,477.1l-19.6-55.3
		c-1.7-4.7-6.5-7.5-11.4-6.4l-55.2,11.5L145,343c27.7,20.2,60.6,32.5,94.8,35.5L183.7,477.1z M360.4,415.4c-4.9-1-9.8,1.7-11.4,6.4
		l-19.6,55.3l-56.1-98.6c34.2-3,67-15.3,94.8-35.5l47.6,83.9L360.4,415.4z"/>
</g>
</svg>
